<?xml version="1.0" encoding="utf-8"?>
<!-- Generator: Adobe Illustrator 27.0.0, SVG Export Plug-In . SVG Version: 6.00 Build 0)  -->
<svg version="1.1" id="Layer_1" xmlns="http://www.w3.org/2000/svg" xmlns:xlink="http://www.w3.org/1999/xlink" x="0px" y="0px"
	 viewBox="0 0 26 26" style="enable-background:new 0 0 26 26;" xml:space="preserve">
<path id="linkedin-3" d="M20,1H6C3.24,1,1,3.24,1,6v14c0,2.76,2.24,5,5,5h14c2.76,0,5-2.24,5-5V6C25,3.24,22.76,1,20,1z M9,20H6V9h3
	V20z M7.5,7.73c-0.97,0-1.75-0.79-1.75-1.76c0-0.97,0.78-1.76,1.75-1.76s1.75,0.79,1.75,1.76C9.25,6.94,8.47,7.73,7.5,7.73z M21,20
	h-3c0,0,0-4.07,0-5.6c0-3.37-4-3.11-4,0c0,1.64,0,5.6,0,5.6h-3V9h3v1.77c1.4-2.59,7-2.78,7,2.48C21,16.1,21,20,21,20z"/>
</svg>
