<?xml version="1.0" encoding="utf-8"?>
<!-- Generator: Adobe Illustrator 27.0.0, SVG Export Plug-In . SVG Version: 6.00 Build 0)  -->
<svg version="1.1" id="Layer_1" xmlns="http://www.w3.org/2000/svg" xmlns:xlink="http://www.w3.org/1999/xlink" x="0px" y="0px"
	 viewBox="0 0 28.59 23.58" style="enable-background:new 0 0 28.59 23.58;" xml:space="preserve">
<style type="text/css">
	.st0{fill-rule:evenodd;clip-rule:evenodd;}
</style>
<g>
	<path class="st0" d="M24.89,6.37v0.71c0,7.2-5.47,15.5-15.51,15.5C6.4,22.59,3.5,21.74,1,20.13c0.43,0.05,0.87,0.08,1.3,0.08
		c2.45,0.01,4.83-0.81,6.77-2.32c-2.33-0.04-4.38-1.56-5.09-3.78c0.82,0.15,1.66,0.12,2.46-0.1c-2.54-0.51-4.37-2.75-4.38-5.34V8.6
		c0.76,0.42,1.61,0.65,2.47,0.68c-2.38-1.6-3.11-4.77-1.68-7.25C5.64,5.42,9.72,7.48,14.1,7.69c-0.09-0.41-0.14-0.83-0.14-1.24
		c0-1.5,0.62-2.94,1.72-3.97c2.19-2.06,5.65-1.95,7.71,0.24c1.22-0.24,2.39-0.69,3.46-1.32c-0.4,1.26-1.26,2.34-2.39,3.02
		c1.08-0.13,2.14-0.42,3.13-0.86C26.86,4.65,25.95,5.6,24.89,6.37z"/>
</g>
</svg>
